<svg version="1.1" xmlns="http://www.w3.org/2000/svg" viewBox="0 0 1941.6428571428637 1200.734429725023" width="1941.6428571428637" height="1200.734429725023" filter="invert(93%) hue-rotate(180deg)">
  <!-- svg-source:excalidraw -->
  
  <defs>
    <style class="style-fonts">
      @font-face {
        font-family: "Virgil";
        src: url("https://excalidraw.com/Virgil.woff2");
      }
      @font-face {
        font-family: "Cascadia";
        src: url("https://excalidraw.com/Cascadia.woff2");
      }
    </style>
    
  </defs>
  <rect x="0" y="0" width="1941.6428571428637" height="1200.734429725023" fill="#ffffff"></rect><g stroke-linecap="round" transform="translate(1432.0000000000018 508.66666666666424) rotate(0 177.5 48.5)"><path d="M24.25 0 M24.25 0 C110.44 -0.84, 195.7 -0.71, 330.75 0 M24.25 0 C116.34 1.84, 209.21 1.8, 330.75 0 M330.75 0 C346.71 1.31, 356.62 8.55, 355 24.25 M330.75 0 C344.85 -2.15, 352.77 9.91, 355 24.25 M355 24.25 C356.5 34.17, 356.49 47.05, 355 72.75 M355 24.25 C355.5 35.11, 355.08 46.68, 355 72.75 M355 72.75 C355.39 89.98, 347.4 96.43, 330.75 97 M355 72.75 C355.79 88.51, 347.25 97.45, 330.75 97 M330.75 97 C268.92 97.66, 205.66 96.56, 24.25 97 M330.75 97 C241.24 95.31, 151.12 95.33, 24.25 97 M24.25 97 C6.95 98.67, -1.26 88.47, 0 72.75 M24.25 97 C7.11 98.84, -1.06 87.75, 0 72.75 M0 72.75 C1.05 59.98, -1.37 46.76, 0 24.25 M0 72.75 C-0.66 53.42, -1.24 35.8, 0 24.25 M0 24.25 C-1.47 7.27, 9.96 -0.61, 24.25 0 M0 24.25 C-1.23 9.68, 9.46 -2.27, 24.25 0" stroke="#1971c2" stroke-width="1" fill="none"></path></g><g transform="translate(1559.5916671752948 532.1666666666642) rotate(0 49.90833282470703 25)"><text x="49.90833282470703" y="0" font-family="Virgil, Segoe UI Emoji" font-size="20px" fill="#1971c2" text-anchor="middle" style="white-space: pre;" direction="ltr" dominant-baseline="text-before-edge">Router</text><text x="49.90833282470703" y="25" font-family="Virgil, Segoe UI Emoji" font-size="20px" fill="#1971c2" text-anchor="middle" style="white-space: pre;" direction="ltr" dominant-baseline="text-before-edge">AS 64540</text></g><g stroke-linecap="round"><g transform="translate(1350.083333333334 213.58333333332985) rotate(0 2.5560364944240064 484.7897430521591)"><path d="M-0.37 0.89 C0.47 162.09, 4.4 806.65, 5.49 967.85 M1.63 0.32 C2.24 161.64, 3.66 807.75, 4.31 969.26" stroke="#2f9e44" stroke-width="1" fill="none"></path></g></g><mask></mask><g stroke-linecap="round"><g transform="translate(857.4692674093612 227.751923614504) rotate(0 -7.241513731701616 481.79651362339496)"><path d="M-0.21 1.09 C-2.54 161.5, -11.48 802.66, -13.7 962.98 M-1.78 0.61 C-4.23 160.6, -12.27 800.33, -14.27 960.98" stroke="#2f9e44" stroke-width="1" fill="none"></path></g></g><mask></mask><g stroke-linecap="round" transform="translate(500.8026007426952 489.08525694783884) rotate(0 60 57.5)"><path d="M28.75 0 M28.75 0 C42.08 -1.42, 52.86 0.86, 91.25 0 M28.75 0 C53.26 0.09, 76.93 -0.04, 91.25 0 M91.25 0 C109.3 -0.99, 121.1 7.89, 120 28.75 M91.25 0 C110.34 2.26, 120.67 11.77, 120 28.75 M120 28.75 C118.75 45.84, 118.74 60.57, 120 86.25 M120 28.75 C119.98 49.21, 120.04 70.59, 120 86.25 M120 86.25 C121.43 104.69, 109.85 114.25, 91.25 115 M120 86.25 C121.69 106.92, 112.29 115.72, 91.25 115 M91.25 115 C74.17 113.74, 55.45 115.17, 28.75 115 M91.25 115 C75.13 114.35, 59.97 113.67, 28.75 115 M28.75 115 C8.02 113.72, 1.26 104.39, 0 86.25 M28.75 115 C11.86 115.71, 0.57 104.52, 0 86.25 M0 86.25 C0.53 66.13, -1.25 46.29, 0 28.75 M0 86.25 C-0.54 63.73, -1.14 42.93, 0 28.75 M0 28.75 C1.56 11.58, 11.13 1.5, 28.75 0 M0 28.75 C1.6 9.18, 9.22 1.79, 28.75 0" stroke="#1971c2" stroke-width="1" fill="none"></path></g><g transform="translate(510.1776007426952 521.5852569478388) rotate(0 50.625 25)"><text x="50.625" y="0" font-family="Virgil, Segoe UI Emoji" font-size="20px" fill="#1971c2" text-anchor="middle" style="white-space: pre;" direction="ltr" dominant-baseline="text-before-edge">Router</text><text x="50.625" y="25" font-family="Virgil, Segoe UI Emoji" font-size="20px" fill="#1971c2" text-anchor="middle" style="white-space: pre;" direction="ltr" dominant-baseline="text-before-edge">AS 64520</text></g><g transform="translate(10 400.99999999999636) rotate(0 201.1999969482422 75)"><text x="0" y="0" font-family="Virgil, Segoe UI Emoji" font-size="20px" fill="#f08c00" text-anchor="start" style="white-space: pre;" direction="ltr" dominant-baseline="text-before-edge">CIDRs:</text><text x="0" y="25" font-family="Virgil, Segoe UI Emoji" font-size="20px" fill="#f08c00" text-anchor="start" style="white-space: pre;" direction="ltr" dominant-baseline="text-before-edge">* unicast region a - 2001:db8:6000::/48</text><text x="0" y="50" font-family="Virgil, Segoe UI Emoji" font-size="20px" fill="#f08c00" text-anchor="start" style="white-space: pre;" direction="ltr" dominant-baseline="text-before-edge">* unicast region b - 2001:db8:6001::/48</text><text x="0" y="75" font-family="Virgil, Segoe UI Emoji" font-size="20px" fill="#f08c00" text-anchor="start" style="white-space: pre;" direction="ltr" dominant-baseline="text-before-edge">* unicast region c - 2001:db8:6002::/48</text><text x="0" y="100" font-family="Virgil, Segoe UI Emoji" font-size="20px" fill="#f08c00" text-anchor="start" style="white-space: pre;" direction="ltr" dominant-baseline="text-before-edge">* anycast a - 2001:db8:7000::/48</text><text x="0" y="125" font-family="Virgil, Segoe UI Emoji" font-size="20px" fill="#f08c00" text-anchor="start" style="white-space: pre;" direction="ltr" dominant-baseline="text-before-edge">* anycast b - 2001:db8:8000::/48</text></g><g stroke-linecap="round" transform="translate(346.9999999999982 10) rotate(0 728.5 37)"><path d="M18.5 0 M18.5 0 C580.45 4.59, 1142.34 5.15, 1438.5 0 M18.5 0 C465.17 5.69, 911.82 5.08, 1438.5 0 M1438.5 0 C1450.43 -0.82, 1456.29 4.3, 1457 18.5 M1438.5 0 C1449.81 1.74, 1455.42 6.52, 1457 18.5 M1457 18.5 C1455.23 31.88, 1456.62 43.98, 1457 55.5 M1457 18.5 C1456.57 32.46, 1457.11 44.77, 1457 55.5 M1457 55.5 C1456.98 67.92, 1451.96 72.5, 1438.5 74 M1457 55.5 C1455.58 67.73, 1449.39 73.07, 1438.5 74 M1438.5 74 C947.28 71.51, 454.69 70.74, 18.5 74 M1438.5 74 C1089.36 70.78, 740.33 70.73, 18.5 74 M18.5 74 C6.83 74.91, -1.55 65.99, 0 55.5 M18.5 74 C4.64 75.66, -1.88 66.3, 0 55.5 M0 55.5 C-1.62 47.05, -1.22 35.94, 0 18.5 M0 55.5 C0.67 42.35, -0.54 28.04, 0 18.5 M0 18.5 C0.83 4.22, 6.29 0.52, 18.5 0 M0 18.5 C-1.11 7.2, 4.6 1.43, 18.5 0" stroke="#e03131" stroke-width="1" fill="none"></path></g><g transform="translate(965.425003051756 29.5) rotate(0 110.07499694824219 17.5)"><text x="110.07499694824219" y="0" font-family="Virgil, Segoe UI Emoji" font-size="28px" fill="#e03131" text-anchor="middle" style="white-space: pre;" direction="ltr" dominant-baseline="text-before-edge">Tier 1 Upstream</text></g><g stroke-linecap="round" transform="translate(1026.3333333333326 187.66666666666606) rotate(0 57.5 50.5)"><path d="M25.25 0 M25.25 0 C48.51 -1.51, 71.2 -1.34, 89.75 0 M25.25 0 C48.88 -0.35, 71.71 1.31, 89.75 0 M89.75 0 C105.11 0.38, 114.98 8.53, 115 25.25 M89.75 0 C104.73 2.12, 116.6 8.72, 115 25.25 M115 25.25 C114.75 44.77, 116.3 62.36, 115 75.75 M115 25.25 C114.07 44.31, 114.4 62.23, 115 75.75 M115 75.75 C113.59 94.21, 108.47 99.32, 89.75 101 M115 75.75 C113.87 91.4, 105.48 102.25, 89.75 101 M89.75 101 C77.24 102.26, 60.92 102.16, 25.25 101 M89.75 101 C64.9 101.06, 38.42 101.61, 25.25 101 M25.25 101 C8.2 102.17, 1.77 94.42, 0 75.75 M25.25 101 C6.63 101.62, 1.35 91.05, 0 75.75 M0 75.75 C1.6 62.82, -1.5 48.07, 0 25.25 M0 75.75 C0.44 61.96, 0.18 48.48, 0 25.25 M0 25.25 C-1.65 7.22, 8.12 1.32, 25.25 0 M0 25.25 C-2.07 8.9, 8.85 -1.72, 25.25 0" stroke="#e03131" stroke-width="1" fill="none"></path></g><g transform="translate(1037.908334096272 213.16666666666606) rotate(0 45.92499923706055 25)"><text x="45.92499923706055" y="0" font-family="Virgil, Segoe UI Emoji" font-size="20px" fill="#e03131" text-anchor="middle" style="white-space: pre;" direction="ltr" dominant-baseline="text-before-edge">Tier 2 </text><text x="45.92499923706055" y="25" font-family="Virgil, Segoe UI Emoji" font-size="20px" fill="#e03131" text-anchor="middle" style="white-space: pre;" direction="ltr" dominant-baseline="text-before-edge">Upstream</text></g><g stroke-linecap="round" transform="translate(1436.499999999999 198.4999999999991) rotate(0 57.5 50.5)"><path d="M25.25 0 M25.25 0 C48.03 -0.58, 68.61 -0.37, 89.75 0 M25.25 0 C45.27 -0.74, 63.22 0.48, 89.75 0 M89.75 0 C108.45 -0.49, 116.83 6.55, 115 25.25 M89.75 0 C106.33 0.22, 115.16 8.55, 115 25.25 M115 25.25 C116.78 37.56, 115.63 49.84, 115 75.75 M115 25.25 C116.07 41.23, 114.38 57.18, 115 75.75 M115 75.75 C116.49 92.24, 107.25 101.67, 89.75 101 M115 75.75 C115.38 91.44, 105.77 99.7, 89.75 101 M89.75 101 C73.39 99.8, 60.12 102.1, 25.25 101 M89.75 101 C68.68 101.32, 45.69 101.06, 25.25 101 M25.25 101 C6.57 100.78, 1.95 90.76, 0 75.75 M25.25 101 C8.03 102, 1.65 91.4, 0 75.75 M0 75.75 C1.92 63.36, -0.96 53.78, 0 25.25 M0 75.75 C-0.58 59.52, 0.63 42.61, 0 25.25 M0 25.25 C-1.04 6.75, 9.99 -1.04, 25.25 0 M0 25.25 C0.17 8.81, 9.57 1.82, 25.25 0" stroke="#e03131" stroke-width="1" fill="none"></path></g><g transform="translate(1448.0750007629385 223.9999999999991) rotate(0 45.92499923706055 25)"><text x="45.92499923706055" y="0" font-family="Virgil, Segoe UI Emoji" font-size="20px" fill="#e03131" text-anchor="middle" style="white-space: pre;" direction="ltr" dominant-baseline="text-before-edge">Tier 2 </text><text x="45.92499923706055" y="25" font-family="Virgil, Segoe UI Emoji" font-size="20px" fill="#e03131" text-anchor="middle" style="white-space: pre;" direction="ltr" dominant-baseline="text-before-edge">Upstream</text></g><g mask="url(#mask-NA_rVIdTfZkpczHx0zoY4)" stroke-linecap="round"><g transform="translate(564.658852005723 484.6666666666656) rotate(0 4.270468592124871 -195.29874215404493)"><path d="M1.02 -0.94 C2.41 -66.06, 7.06 -325.01, 8.45 -390.12 M0.09 1.18 C1.3 -64.32, 5.9 -326.49, 7.37 -391.78" stroke="#1971c2" stroke-width="1" fill="none"></path></g><g transform="translate(564.658852005723 484.6666666666656) rotate(0 4.270468592124871 -195.29874215404493)"><path d="M15.51 -363.79 C15.44 -370.92, 10.03 -380.62, 7.16 -392.49 M16.22 -362.55 C13.44 -371.65, 11.62 -381.48, 7.21 -392.38" stroke="#1971c2" stroke-width="1" fill="none"></path></g><g transform="translate(564.658852005723 484.6666666666656) rotate(0 4.270468592124871 -195.29874215404493)"><path d="M-5.01 -364.2 C1.2 -371.37, 2.07 -380.95, 7.16 -392.49 M-4.29 -362.95 C-0.88 -371.89, 3.51 -381.6, 7.21 -392.38" stroke="#1971c2" stroke-width="1" fill="none"></path></g></g><mask id="mask-NA_rVIdTfZkpczHx0zoY4"><rect x="0" y="0" fill="#fff" width="673.350127455617" height="975.6666666666652"></rect><rect x="469.97115690596274" y="251.66666666666606" fill="#000" width="198.06666564941406" height="75" opacity="1"></rect></mask><g transform="translate(469.97115690596274 251.66666666666606) rotate(0 98.95816369188515 37.701257845954615)"><text x="99.03333282470703" y="0" font-family="Virgil, Segoe UI Emoji" font-size="20px" fill="#1971c2" text-anchor="middle" style="white-space: pre;" direction="ltr" dominant-baseline="text-before-edge">2001:db8:6000::/48</text><text x="99.03333282470703" y="25" font-family="Virgil, Segoe UI Emoji" font-size="20px" fill="#1971c2" text-anchor="middle" style="white-space: pre;" direction="ltr" dominant-baseline="text-before-edge">2001:db8:7000::/48</text><text x="99.03333282470703" y="50" font-family="Virgil, Segoe UI Emoji" font-size="20px" fill="#1971c2" text-anchor="middle" style="white-space: pre;" direction="ltr" dominant-baseline="text-before-edge">2001:db8:8000::/48</text></g><g mask="url(#mask-EPqSV-3Z2xnvwFle6fwX6)" stroke-linecap="round"><g transform="translate(1514.3233118805174 502.93763104293066) rotate(0 0.13676927570872977 -97.44279985651406)"><path d="M0.63 -0.51 C0.44 -32.77, -0.84 -162.23, -0.98 -194.38 M-0.5 -1.82 C-0.33 -33.89, 1.34 -161.6, 1.25 -193.31" stroke="#1971c2" stroke-width="1" fill="none"></path></g><g transform="translate(1514.3233118805174 502.93763104293066) rotate(0 0.13676927570872977 -97.44279985651406)"><path d="M10.49 -166.6 C6.89 -174.1, 5.37 -182.21, 0.95 -192.99 M11.25 -165.4 C8.04 -172.68, 6.95 -180.49, 0.99 -193.95" stroke="#1971c2" stroke-width="1" fill="none"></path></g><g transform="translate(1514.3233118805174 502.93763104293066) rotate(0 0.13676927570872977 -97.44279985651406)"><path d="M-10.03 -166.73 C-7.21 -174.29, -2.3 -182.37, 0.95 -192.99 M-9.27 -165.53 C-7.14 -172.91, -2.88 -180.68, 0.99 -193.95" stroke="#1971c2" stroke-width="1" fill="none"></path></g></g><mask id="mask-EPqSV-3Z2xnvwFle6fwX6"><rect x="0" y="0" fill="#fff" width="1614.3674820545912" height="796.4376310429311"></rect><rect x="1415.2678939687735" y="368.68763104293066" fill="#000" width="198.06666564941406" height="75" opacity="1"></rect></mask><g transform="translate(1415.2678939687735 368.68763104293066) rotate(0 99.19218718745265 36.80720014348594)"><text x="99.03333282470703" y="0" font-family="Virgil, Segoe UI Emoji" font-size="20px" fill="#1971c2" text-anchor="middle" style="white-space: pre;" direction="ltr" dominant-baseline="text-before-edge">2001:db8:6002::/48</text><text x="99.03333282470703" y="25" font-family="Virgil, Segoe UI Emoji" font-size="20px" fill="#1971c2" text-anchor="middle" style="white-space: pre;" direction="ltr" dominant-baseline="text-before-edge">2001:db8:7000::/48</text><text x="99.03333282470703" y="50" font-family="Virgil, Segoe UI Emoji" font-size="20px" fill="#1971c2" text-anchor="middle" style="white-space: pre;" direction="ltr" dominant-baseline="text-before-edge">2001:db8:8000::/48</text></g><g mask="url(#mask-MOAxoYH2atEt2uOIsVjZR)" stroke-linecap="round"><g transform="translate(1079.0000000000027 488.35429770959763) rotate(0 -0.6501686853371211 -95.58876478712091)"><path d="M-0.17 -1.17 C-0.11 -33.02, 0.5 -158.77, 0.41 -190.26 M-1.72 0.82 C-1.76 -31.44, -0.18 -159.85, -0.19 -192" stroke="#1971c2" stroke-width="1" fill="none"></path></g><g transform="translate(1079.0000000000027 488.35429770959763) rotate(0 -0.6501686853371211 -95.58876478712091)"><path d="M7.92 -162.64 C7.85 -173.17, 4.96 -179.85, -0.92 -191.75 M10.14 -162.94 C5.79 -175.45, 1.55 -184.66, -0.52 -192.28" stroke="#1971c2" stroke-width="1" fill="none"></path></g><g transform="translate(1079.0000000000027 488.35429770959763) rotate(0 -0.6501686853371211 -95.58876478712091)"><path d="M-12.6 -162.78 C-6.44 -173.24, -3.09 -179.87, -0.92 -191.75 M-10.38 -163.08 C-6.81 -175.7, -3.12 -184.85, -0.52 -192.28" stroke="#1971c2" stroke-width="1" fill="none"></path></g></g><mask id="mask-MOAxoYH2atEt2uOIsVjZR"><rect x="0" y="0" fill="#fff" width="1179.2500000000027" height="779.3542977095976"></rect><rect x="979.8416671752957" y="355.35429770959763" fill="#000" width="198.06666564941406" height="75" opacity="1"></rect></mask><g transform="translate(979.8416671752957 355.35429770959763) rotate(0 98.50816413936991 37.41123521287909)"><text x="99.03333282470703" y="0" font-family="Virgil, Segoe UI Emoji" font-size="20px" fill="#1971c2" text-anchor="middle" style="white-space: pre;" direction="ltr" dominant-baseline="text-before-edge">2001:db8:6001::/48</text><text x="99.03333282470703" y="25" font-family="Virgil, Segoe UI Emoji" font-size="20px" fill="#1971c2" text-anchor="middle" style="white-space: pre;" direction="ltr" dominant-baseline="text-before-edge">2001:db8:7000::/48</text><text x="99.03333282470703" y="50" font-family="Virgil, Segoe UI Emoji" font-size="20px" fill="#1971c2" text-anchor="middle" style="white-space: pre;" direction="ltr" dominant-baseline="text-before-edge">2001:db8:8000::/48</text></g><g stroke-linecap="round"><g transform="translate(1105.8408654482164 184.30555555555202) rotate(0 0.03161098558030062 -47.39616355722296)"><path d="M-0.84 0.7 C-0.99 -15.07, 0.02 -77.93, -0.14 -93.5 M0.92 0.02 C0.63 -15.63, -0.56 -79.73, -0.6 -95.49" stroke="#e03131" stroke-width="1" fill="none"></path></g><g transform="translate(1105.8408654482164 184.30555555555202) rotate(0 0.03161098558030062 -47.39616355722296)"><path d="M11.16 -65.86 C6.32 -78.84, 3.76 -87.16, -0.87 -94.34 M9.43 -67.94 C4.95 -79.3, 0.52 -89.89, -1.28 -95.92" stroke="#e03131" stroke-width="1" fill="none"></path></g><g transform="translate(1105.8408654482164 184.30555555555202) rotate(0 0.03161098558030062 -47.39616355722296)"><path d="M-9.36 -65.61 C-6.8 -78.54, -1.96 -86.95, -0.87 -94.34 M-11.09 -67.69 C-7.4 -79.18, -3.66 -89.87, -1.28 -95.92" stroke="#e03131" stroke-width="1" fill="none"></path></g></g><mask></mask><g stroke-linecap="round"><g transform="translate(1495.3828281938986 192.22222222221762) rotate(0 0.4805030277673268 -50.576299684991)"><path d="M-1.1 -0.24 C-0.81 -17.2, 1.78 -84.08, 2.06 -100.91 M0.52 -1.42 C0.72 -18.29, 1.82 -83.15, 1.66 -99.63" stroke="#e03131" stroke-width="1" fill="none"></path></g><g transform="translate(1495.3828281938986 192.22222222221762) rotate(0 0.4805030277673268 -50.576299684991)"><path d="M11.36 -69.64 C7.45 -81.44, 3.66 -88.19, 3.63 -98.25 M11.74 -71.7 C9.57 -77.32, 7.89 -83.28, 1.93 -99.39" stroke="#e03131" stroke-width="1" fill="none"></path></g><g transform="translate(1495.3828281938986 192.22222222221762) rotate(0 0.4805030277673268 -50.576299684991)"><path d="M-9.16 -69.75 C-6.38 -81.33, -3.48 -88.04, 3.63 -98.25 M-8.78 -71.81 C-6.67 -77.57, -4.07 -83.51, 1.93 -99.39" stroke="#e03131" stroke-width="1" fill="none"></path></g></g><mask></mask><g stroke-linecap="round" transform="translate(1015.7500000000027 493.05555555555156) rotate(0 60 57.5)"><path d="M28.75 0 M28.75 0 C43.67 -0.89, 55.54 -0.83, 91.25 0 M28.75 0 C43.54 0.65, 58.56 -0.38, 91.25 0 M91.25 0 C110.5 -0.03, 119.93 10.81, 120 28.75 M91.25 0 C110.58 -1.59, 121.94 9.19, 120 28.75 M120 28.75 C119.77 46.69, 120.12 64.62, 120 86.25 M120 28.75 C119.89 44.03, 120.03 60.76, 120 86.25 M120 86.25 C121.49 104.67, 108.5 115.59, 91.25 115 M120 86.25 C118.49 106.14, 111.51 113.2, 91.25 115 M91.25 115 C74.48 112.62, 55.22 114.48, 28.75 115 M91.25 115 C75.43 115.35, 61.41 115.08, 28.75 115 M28.75 115 C10.28 115.01, 0.13 105.72, 0 86.25 M28.75 115 C8.4 112.97, 0.43 107.14, 0 86.25 M0 86.25 C1.33 70.38, 1.4 55.81, 0 28.75 M0 86.25 C0.65 73.88, 0.56 60.73, 0 28.75 M0 28.75 C-1.97 7.91, 9.07 -1.93, 28.75 0 M0 28.75 C1.25 8.56, 10.05 -1.29, 28.75 0" stroke="#1971c2" stroke-width="1" fill="none"></path></g><g transform="translate(1025.4333343505887 525.5555555555516) rotate(0 50.31666564941406 25)"><text x="50.31666564941406" y="0" font-family="Virgil, Segoe UI Emoji" font-size="20px" fill="#1971c2" text-anchor="middle" style="white-space: pre;" direction="ltr" dominant-baseline="text-before-edge">Router</text><text x="50.31666564941406" y="25" font-family="Virgil, Segoe UI Emoji" font-size="20px" fill="#1971c2" text-anchor="middle" style="white-space: pre;" direction="ltr" dominant-baseline="text-before-edge">AS 64530</text></g><g mask="url(#mask-5a3SD_3XH02MIO9w_niUY)" stroke-linecap="round"><g transform="translate(1749.2526634947258 503.8316887453989) rotate(0 -31.134166956235504 -202.76853980446867)"><path d="M0.36 -0.09 C-10.28 -67.65, -52.19 -337.91, -62.62 -405.44 M-0.92 -1.19 C-11.29 -68.52, -50.05 -336.73, -60.46 -403.83" stroke="#1971c2" stroke-width="1" fill="none"></path></g><g transform="translate(1749.2526634947258 503.8316887453989) rotate(0 -31.134166956235504 -202.76853980446867)"><path d="M-46.3 -379.19 C-51.59 -389, -57.04 -400.32, -61.46 -404.99 M-47.1 -376.88 C-50.32 -385.36, -54.42 -391.44, -60.99 -404.25" stroke="#1971c2" stroke-width="1" fill="none"></path></g><g transform="translate(1749.2526634947258 503.8316887453989) rotate(0 -31.134166956235504 -202.76853980446867)"><path d="M-66.6 -376.17 C-63.8 -387.24, -61.18 -399.76, -61.46 -404.99 M-67.39 -373.85 C-65.25 -383.14, -63.97 -390.02, -60.99 -404.25" stroke="#1971c2" stroke-width="1" fill="none"></path></g></g><mask id="mask-5a3SD_3XH02MIO9w_niUY"><rect x="0" y="0" fill="#fff" width="1910.8395457333913" height="1009.4150220787328"></rect><rect x="1619.425889550686" y="263.5400220787319" fill="#000" width="198.06666564941406" height="75" opacity="1"></rect></mask><g transform="translate(1619.425889550686 263.5400220787319) rotate(0 98.69260698780431 37.523126862198296)"><text x="99.03333282470703" y="0" font-family="Virgil, Segoe UI Emoji" font-size="20px" fill="#1971c2" text-anchor="middle" style="white-space: pre;" direction="ltr" dominant-baseline="text-before-edge">2001:db8:6002::/48</text><text x="99.03333282470703" y="25" font-family="Virgil, Segoe UI Emoji" font-size="20px" fill="#1971c2" text-anchor="middle" style="white-space: pre;" direction="ltr" dominant-baseline="text-before-edge">2001:db8:7000::/48</text><text x="99.03333282470703" y="50" font-family="Virgil, Segoe UI Emoji" font-size="20px" fill="#1971c2" text-anchor="middle" style="white-space: pre;" direction="ltr" dominant-baseline="text-before-edge">2001:db8:8000::/48</text></g><g stroke-linecap="round"><g transform="translate(504.533045024722 609.2207076879968) rotate(0 -6.694138126102416 16.72012581972217)"><path d="M0.95 -0.53 C-1.33 5.29, -10.81 28.17, -13.13 33.97 M-0.01 1.8 C-2.54 7.34, -12.02 27.01, -14.34 32.11" stroke="#1971c2" stroke-width="1" fill="none"></path></g></g><mask></mask><g stroke-linecap="round"><g transform="translate(1029.491253767248 614.305555555552) rotate(0 -3.466520316662354 22.950177688033136)"><path d="M-0.36 0.94 C-1.45 8.28, -6.56 37.17, -7.63 44.6 M1.66 0.39 C0.49 7.78, -7.13 37.8, -8.59 45.51" stroke="#1971c2" stroke-width="1" fill="none"></path></g></g><mask></mask><g stroke-linecap="round"><g transform="translate(1539.1297785313623 617.638888888885) rotate(0 -5.14268037416241 22.148766454422002)"><path d="M-0.49 0.61 C-2.35 7.64, -8.77 35.93, -10.54 42.83 M1.46 -0.11 C-0.66 7.07, -10.05 37.24, -11.74 44.41" stroke="#1971c2" stroke-width="1" fill="none"></path></g></g><mask></mask><g stroke-linecap="round" transform="translate(330.3333333333362 970.9722222222185) rotate(0 774.5 57)"><path d="M28.5 0 M28.5 0 C565.88 1.42, 1104.05 1.55, 1520.5 0 M28.5 0 C404.58 1.13, 780.13 0.55, 1520.5 0 M1520.5 0 C1540.7 -0.85, 1549.22 9.1, 1549 28.5 M1520.5 0 C1538.46 -2.28, 1550.23 10.41, 1549 28.5 M1549 28.5 C1547.79 43.25, 1547.66 60.94, 1549 85.5 M1549 28.5 C1548.34 47.97, 1549.99 65.72, 1549 85.5 M1549 85.5 C1549.35 106.44, 1541.11 115.57, 1520.5 114 M1549 85.5 C1550.71 103.39, 1540.78 112.84, 1520.5 114 M1520.5 114 C1183.93 114.65, 847.07 115.33, 28.5 114 M1520.5 114 C1032.76 114.5, 544.91 114.71, 28.5 114 M28.5 114 C11.4 114.96, -1.78 104.57, 0 85.5 M28.5 114 C11.07 113.42, -0.83 103.66, 0 85.5 M0 85.5 C-0.63 70.85, 1.75 55.98, 0 28.5 M0 85.5 C-0.18 67.23, 0.75 48.43, 0 28.5 M0 28.5 C0.1 9.26, 10.09 1.04, 28.5 0 M0 28.5 C-0.87 9.57, 9.08 1.6, 28.5 0" stroke="#f08c00" stroke-width="1" fill="none"></path></g><g transform="translate(1012.3583348592151 1007.9722222222185) rotate(0 92.4749984741211 20)"><text x="92.4749984741211" y="0" font-family="Virgil, Segoe UI Emoji" font-size="16px" fill="#f08c00" text-anchor="middle" style="white-space: pre;" direction="ltr" dominant-baseline="text-before-edge">2001:db8:8000::/48</text><text x="92.4749984741211" y="20" font-family="Virgil, Segoe UI Emoji" font-size="16px" fill="#f08c00" text-anchor="middle" style="white-space: pre;" direction="ltr" dominant-baseline="text-before-edge">Mesh Network/Backhaul</text></g><g stroke-linecap="round"><g transform="translate(523.3338189857373 611.8225232447994) rotate(0 -0.19901164413272454 176.82312977975698)"><path d="M-0.69 0.33 C-0.99 59.17, -0.56 294.04, -0.86 353.02 M1.14 -0.53 C0.66 58.44, -1.32 295.41, -1.54 354.18" stroke="#1971c2" stroke-width="1" fill="none"></path></g><g transform="translate(523.3338189857373 611.8225232447994) rotate(0 -0.19901164413272454 176.82312977975698)"><path d="M-11.06 326.76 C-9.02 334.69, -3.31 348.77, -0.9 352.52 M-11.83 325.82 C-8.26 332.42, -6.52 341.22, -1.4 354.99" stroke="#1971c2" stroke-width="1" fill="none"></path></g><g transform="translate(523.3338189857373 611.8225232447994) rotate(0 -0.19901164413272454 176.82312977975698)"><path d="M9.46 326.89 C3.81 334.65, 1.84 348.68, -0.9 352.52 M8.69 325.95 C6.97 332.67, 3.42 341.44, -1.4 354.99" stroke="#1971c2" stroke-width="1" fill="none"></path></g></g><mask></mask><g stroke-linecap="round"><g transform="translate(1045.9798548468857 615.5720390720353) rotate(0 4.049514976488126 172.17825284507103)"><path d="M-0.27 0.62 C0.95 57.84, 5 287.06, 6.26 344.46 M1.78 -0.1 C3.45 57.26, 7.61 285.31, 8.37 342.51" stroke="#1971c2" stroke-width="1" fill="none"></path></g><g transform="translate(1045.9798548468857 615.5720390720353) rotate(0 4.049514976488126 172.17825284507103)"><path d="M-1.32 312.6 C0.72 320.15, 3.89 324.87, 9.3 341.66 M-1.95 315.27 C-0.12 323.58, 3.34 330.86, 7.63 343.11" stroke="#1971c2" stroke-width="1" fill="none"></path></g><g transform="translate(1045.9798548468857 615.5720390720353) rotate(0 4.049514976488126 172.17825284507103)"><path d="M19.2 312.27 C16.93 319.84, 15.78 324.63, 9.3 341.66 M18.57 314.94 C14.13 323.35, 11.33 330.73, 7.63 343.11" stroke="#1971c2" stroke-width="1" fill="none"></path></g></g><mask></mask><g stroke-linecap="round"><g transform="translate(1616.1593367795685 607.6432234432195) rotate(0 5.851755126090893 179.06373520100374)"><path d="M-0.09 0.8 C2.17 60.43, 11.24 298.43, 13.29 357.95 M-1.59 0.18 C0.6 59.42, 10.66 296.81, 12.81 356.07" stroke="#1971c2" stroke-width="1" fill="none"></path></g><g transform="translate(1616.1593367795685 607.6432234432195) rotate(0 5.851755126090893 179.06373520100374)"><path d="M2.78 329.8 C5.47 335.84, 8.57 345.73, 14.26 355.05 M1.1 327.66 C4.68 336.06, 7.39 345.47, 12.89 355.99" stroke="#1971c2" stroke-width="1" fill="none"></path></g><g transform="translate(1616.1593367795685 607.6432234432195) rotate(0 5.851755126090893 179.06373520100374)"><path d="M23.29 328.99 C20.2 335.24, 17.52 345.36, 14.26 355.05 M21.61 326.85 C18.9 335.53, 15.33 345.19, 12.89 355.99" stroke="#1971c2" stroke-width="1" fill="none"></path></g></g><mask></mask><g stroke-linecap="round"><g transform="translate(1097.6350912290181 613.055555555552) rotate(0 7.344268792301136 27.916666666666515)"><path d="M0 0 C2.45 9.31, 12.24 46.53, 14.69 55.83 M0 0 C2.45 9.31, 12.24 46.53, 14.69 55.83" stroke="#1971c2" stroke-width="2" fill="none"></path></g></g><mask></mask><g stroke-linecap="round"><g transform="translate(1697.9582256815443 617.638888888885) rotate(0 0.6750654675738588 27.12542777718795)"><path d="M0 0 C0.23 9.04, 1.13 45.21, 1.35 54.25 M0 0 C0.23 9.04, 1.13 45.21, 1.35 54.25" stroke="#1971c2" stroke-width="2" fill="none"></path></g></g><mask></mask><g stroke-linecap="round"><g transform="translate(585.159679084125 611.2103174603153) rotate(0 3.098373715495427 19.166666666666742)"><path d="M0 0 C1.03 6.39, 5.16 31.94, 6.2 38.33 M0 0 C1.03 6.39, 5.16 31.94, 6.2 38.33" stroke="#1971c2" stroke-width="2" fill="none"></path></g></g><mask></mask><g transform="translate(474.1428571428596 1117.0436507936483) rotate(0 57.71666717529297 17.5)"><text x="0" y="0" font-family="Virgil, Segoe UI Emoji" font-size="28px" fill="#2f9e44" text-anchor="start" style="white-space: pre;" direction="ltr" dominant-baseline="text-before-edge">Region A</text></g><g transform="translate(1044.7595233009001 1110.3769841269823) rotate(0 58.70833206176758 17.5)"><text x="0" y="0" font-family="Virgil, Segoe UI Emoji" font-size="28px" fill="#2f9e44" text-anchor="start" style="white-space: pre;" direction="ltr" dominant-baseline="text-before-edge">Region B</text></g><g transform="translate(1571.4261899675676 1113.7103174603149) rotate(0 57.54999923706055 17.5)"><text x="0" y="0" font-family="Virgil, Segoe UI Emoji" font-size="28px" fill="#2f9e44" text-anchor="start" style="white-space: pre;" direction="ltr" dominant-baseline="text-before-edge">Region C</text></g><g stroke-linecap="round" transform="translate(1650.8095238095302 677.8769841269805) rotate(0 65.83333333333326 75.83333333333326)"><path d="M32 0 M32 0 C57.74 0, 83.49 0, 99.67 0 M32 0 C49.13 0, 66.26 0, 99.67 0 M99.67 0 C121 0, 131.67 10.67, 131.67 32 M99.67 0 C121 0, 131.67 10.67, 131.67 32 M131.67 32 C131.67 65.3, 131.67 98.6, 131.67 119.67 M131.67 32 C131.67 66.26, 131.67 100.53, 131.67 119.67 M131.67 119.67 C131.67 141, 121 151.67, 99.67 151.67 M131.67 119.67 C131.67 141, 121 151.67, 99.67 151.67 M99.67 151.67 C77.48 151.67, 55.29 151.67, 32 151.67 M99.67 151.67 C79.94 151.67, 60.22 151.67, 32 151.67 M32 151.67 C10.67 151.67, 0 141, 0 119.67 M32 151.67 C10.67 151.67, 0 141, 0 119.67 M0 119.67 C0 90.56, 0 61.46, 0 32 M0 119.67 C0 96.2, 0 72.73, 0 32 M0 32 C0 10.67, 10.67 0, 32 0 M0 32 C0 10.67, 10.67 0, 32 0" stroke="#2f9e44" stroke-width="2" fill="none"></path></g><g transform="translate(1676.7428556169843 723.710317460314) rotate(0 39.900001525878906 30)"><text x="39.900001525878906" y="0" font-family="Virgil, Segoe UI Emoji" font-size="16px" fill="#2f9e44" text-anchor="middle" style="white-space: pre;" direction="ltr" dominant-baseline="text-before-edge">2001:</text><text x="39.900001525878906" y="20" font-family="Virgil, Segoe UI Emoji" font-size="16px" fill="#2f9e44" text-anchor="middle" style="white-space: pre;" direction="ltr" dominant-baseline="text-before-edge">db8:</text><text x="39.900001525878906" y="40" font-family="Virgil, Segoe UI Emoji" font-size="16px" fill="#2f9e44" text-anchor="middle" style="white-space: pre;" direction="ltr" dominant-baseline="text-before-edge">7000::/48</text></g><g stroke-linecap="round" transform="translate(1066.6428571428637 670.3769841269814) rotate(0 65.83333333333326 75.83333333333326)"><path d="M32 0 M32 0 C57.54 0, 83.09 0, 99.67 0 M32 0 C52.58 0, 73.16 0, 99.67 0 M99.67 0 C121 0, 131.67 10.67, 131.67 32 M99.67 0 C121 0, 131.67 10.67, 131.67 32 M131.67 32 C131.67 59.1, 131.67 86.21, 131.67 119.67 M131.67 32 C131.67 53.79, 131.67 75.58, 131.67 119.67 M131.67 119.67 C131.67 141, 121 151.67, 99.67 151.67 M131.67 119.67 C131.67 141, 121 151.67, 99.67 151.67 M99.67 151.67 C75.07 151.67, 50.48 151.67, 32 151.67 M99.67 151.67 C74.48 151.67, 49.3 151.67, 32 151.67 M32 151.67 C10.67 151.67, 0 141, 0 119.67 M32 151.67 C10.67 151.67, 0 141, 0 119.67 M0 119.67 C0 84.92, 0 50.16, 0 32 M0 119.67 C0 101.2, 0 82.73, 0 32 M0 32 C0 10.67, 10.67 0, 32 0 M0 32 C0 10.67, 10.67 0, 32 0" stroke="#2f9e44" stroke-width="2" fill="none"></path></g><g transform="translate(1092.5761889503178 716.2103174603144) rotate(0 39.900001525878906 30)"><text x="39.900001525878906" y="0" font-family="Virgil, Segoe UI Emoji" font-size="16px" fill="#2f9e44" text-anchor="middle" style="white-space: pre;" direction="ltr" dominant-baseline="text-before-edge">2001:</text><text x="39.900001525878906" y="20" font-family="Virgil, Segoe UI Emoji" font-size="16px" fill="#2f9e44" text-anchor="middle" style="white-space: pre;" direction="ltr" dominant-baseline="text-before-edge">db8:</text><text x="39.900001525878906" y="40" font-family="Virgil, Segoe UI Emoji" font-size="16px" fill="#2f9e44" text-anchor="middle" style="white-space: pre;" direction="ltr" dominant-baseline="text-before-edge">7000::/48</text></g><g stroke-linecap="round" transform="translate(543.3095238095302 655.3769841269809) rotate(0 65.83333333333326 75.83333333333326)"><path d="M32 0 M32 0 C49.04 0, 66.08 0, 99.67 0 M32 0 C47.94 0, 63.89 0, 99.67 0 M99.67 0 C121 0, 131.67 10.67, 131.67 32 M99.67 0 C121 0, 131.67 10.67, 131.67 32 M131.67 32 C131.67 65.96, 131.67 99.93, 131.67 119.67 M131.67 32 C131.67 53.19, 131.67 74.38, 131.67 119.67 M131.67 119.67 C131.67 141, 121 151.67, 99.67 151.67 M131.67 119.67 C131.67 141, 121 151.67, 99.67 151.67 M99.67 151.67 C77.5 151.67, 55.33 151.67, 32 151.67 M99.67 151.67 C72.89 151.67, 46.12 151.67, 32 151.67 M32 151.67 C10.67 151.67, 0 141, 0 119.67 M32 151.67 C10.67 151.67, 0 141, 0 119.67 M0 119.67 C0 100.32, 0 80.98, 0 32 M0 119.67 C0 96.33, 0 72.99, 0 32 M0 32 C0 10.67, 10.67 0, 32 0 M0 32 C0 10.67, 10.67 0, 32 0" stroke="#2f9e44" stroke-width="2" fill="none"></path></g><g transform="translate(569.2428556169843 701.210317460314) rotate(0 39.900001525878906 30)"><text x="39.900001525878906" y="0" font-family="Virgil, Segoe UI Emoji" font-size="16px" fill="#2f9e44" text-anchor="middle" style="white-space: pre;" direction="ltr" dominant-baseline="text-before-edge">2001:</text><text x="39.900001525878906" y="20" font-family="Virgil, Segoe UI Emoji" font-size="16px" fill="#2f9e44" text-anchor="middle" style="white-space: pre;" direction="ltr" dominant-baseline="text-before-edge">db8:</text><text x="39.900001525878906" y="40" font-family="Virgil, Segoe UI Emoji" font-size="16px" fill="#2f9e44" text-anchor="middle" style="white-space: pre;" direction="ltr" dominant-baseline="text-before-edge">7000::/48</text></g><g stroke-linecap="round" transform="translate(358.30952380952886 648.7103174603153) rotate(0 65.83333333333326 75.83333333333326)"><path d="M32 0 M32 0 C45.79 0, 59.57 0, 99.67 0 M32 0 C52.11 0, 72.22 0, 99.67 0 M99.67 0 C121 0, 131.67 10.67, 131.67 32 M99.67 0 C121 0, 131.67 10.67, 131.67 32 M131.67 32 C131.67 58.34, 131.67 84.68, 131.67 119.67 M131.67 32 C131.67 64.81, 131.67 97.61, 131.67 119.67 M131.67 119.67 C131.67 141, 121 151.67, 99.67 151.67 M131.67 119.67 C131.67 141, 121 151.67, 99.67 151.67 M99.67 151.67 C82.34 151.67, 65.02 151.67, 32 151.67 M99.67 151.67 C79.18 151.67, 58.69 151.67, 32 151.67 M32 151.67 C10.67 151.67, 0 141, 0 119.67 M32 151.67 C10.67 151.67, 0 141, 0 119.67 M0 119.67 C0 98.59, 0 77.51, 0 32 M0 119.67 C0 95.15, 0 70.64, 0 32 M0 32 C0 10.67, 10.67 0, 32 0 M0 32 C0 10.67, 10.67 0, 32 0" stroke="#2f9e44" stroke-width="2" fill="none"></path></g><g transform="translate(383.4261899675689 694.5436507936483) rotate(0 40.71666717529297 30)"><text x="40.71666717529297" y="0" font-family="Virgil, Segoe UI Emoji" font-size="16px" fill="#2f9e44" text-anchor="middle" style="white-space: pre;" direction="ltr" dominant-baseline="text-before-edge">2001:</text><text x="40.71666717529297" y="20" font-family="Virgil, Segoe UI Emoji" font-size="16px" fill="#2f9e44" text-anchor="middle" style="white-space: pre;" direction="ltr" dominant-baseline="text-before-edge">db8:</text><text x="40.71666717529297" y="40" font-family="Virgil, Segoe UI Emoji" font-size="16px" fill="#2f9e44" text-anchor="middle" style="white-space: pre;" direction="ltr" dominant-baseline="text-before-edge">6000::/48</text></g><g stroke-linecap="round" transform="translate(893.3095238095298 672.0436507936483) rotate(0 65.83333333333326 75.83333333333326)"><path d="M32 0 M32 0 C52.49 0, 72.98 0, 99.67 0 M32 0 C58.86 0, 85.73 0, 99.67 0 M99.67 0 C121 0, 131.67 10.67, 131.67 32 M99.67 0 C121 0, 131.67 10.67, 131.67 32 M131.67 32 C131.67 58.39, 131.67 84.78, 131.67 119.67 M131.67 32 C131.67 60.46, 131.67 88.92, 131.67 119.67 M131.67 119.67 C131.67 141, 121 151.67, 99.67 151.67 M131.67 119.67 C131.67 141, 121 151.67, 99.67 151.67 M99.67 151.67 C81.08 151.67, 62.48 151.67, 32 151.67 M99.67 151.67 C73.85 151.67, 48.03 151.67, 32 151.67 M32 151.67 C10.67 151.67, 0 141, 0 119.67 M32 151.67 C10.67 151.67, 0 141, 0 119.67 M0 119.67 C0 97.85, 0 76.03, 0 32 M0 119.67 C0 99.07, 0 78.48, 0 32 M0 32 C0 10.67, 10.67 0, 32 0 M0 32 C0 10.67, 10.67 0, 32 0" stroke="#2f9e44" stroke-width="2" fill="none"></path></g><g transform="translate(921.7595220293379 717.8769841269814) rotate(0 37.38333511352539 30)"><text x="37.38333511352539" y="0" font-family="Virgil, Segoe UI Emoji" font-size="16px" fill="#2f9e44" text-anchor="middle" style="white-space: pre;" direction="ltr" dominant-baseline="text-before-edge">2001:</text><text x="37.38333511352539" y="20" font-family="Virgil, Segoe UI Emoji" font-size="16px" fill="#2f9e44" text-anchor="middle" style="white-space: pre;" direction="ltr" dominant-baseline="text-before-edge">db8:</text><text x="37.38333511352539" y="40" font-family="Virgil, Segoe UI Emoji" font-size="16px" fill="#2f9e44" text-anchor="middle" style="white-space: pre;" direction="ltr" dominant-baseline="text-before-edge">6001::/48</text></g><g stroke-linecap="round" transform="translate(1404.9761904761967 665.3769841269809) rotate(0 65.83333333333326 75.83333333333326)"><path d="M32 0 M32 0 C54.36 0, 76.72 0, 99.67 0 M32 0 C48.68 0, 65.36 0, 99.67 0 M99.67 0 C121 0, 131.67 10.67, 131.67 32 M99.67 0 C121 0, 131.67 10.67, 131.67 32 M131.67 32 C131.67 62.51, 131.67 93.03, 131.67 119.67 M131.67 32 C131.67 52.18, 131.67 72.37, 131.67 119.67 M131.67 119.67 C131.67 141, 121 151.67, 99.67 151.67 M131.67 119.67 C131.67 141, 121 151.67, 99.67 151.67 M99.67 151.67 C78.69 151.67, 57.72 151.67, 32 151.67 M99.67 151.67 C82.81 151.67, 65.95 151.67, 32 151.67 M32 151.67 C10.67 151.67, 0 141, 0 119.67 M32 151.67 C10.67 151.67, 0 141, 0 119.67 M0 119.67 C0 86.96, 0 54.24, 0 32 M0 119.67 C0 91.48, 0 63.29, 0 32 M0 32 C0 10.67, 10.67 0, 32 0 M0 32 C0 10.67, 10.67 0, 32 0" stroke="#2f9e44" stroke-width="2" fill="none"></path></g><g transform="translate(1429.8928558712973 711.2103174603144) rotate(0 40.91666793823242 30)"><text x="40.91666793823242" y="0" font-family="Virgil, Segoe UI Emoji" font-size="16px" fill="#2f9e44" text-anchor="middle" style="white-space: pre;" direction="ltr" dominant-baseline="text-before-edge">2001:</text><text x="40.91666793823242" y="20" font-family="Virgil, Segoe UI Emoji" font-size="16px" fill="#2f9e44" text-anchor="middle" style="white-space: pre;" direction="ltr" dominant-baseline="text-before-edge">db8:</text><text x="40.91666793823242" y="40" font-family="Virgil, Segoe UI Emoji" font-size="16px" fill="#2f9e44" text-anchor="middle" style="white-space: pre;" direction="ltr" dominant-baseline="text-before-edge">6002::/48</text></g><g stroke-linecap="round" transform="translate(693.3095238095298 665.3769841269818) rotate(0 65.83333333333326 75.83333333333326)"><path d="M32 0 M32 0 C55.51 0, 79.02 0, 99.67 0 M32 0 C50.14 0, 68.29 0, 99.67 0 M99.67 0 C121 0, 131.67 10.67, 131.67 32 M99.67 0 C121 0, 131.67 10.67, 131.67 32 M131.67 32 C131.67 65.56, 131.67 99.12, 131.67 119.67 M131.67 32 C131.67 62.95, 131.67 93.91, 131.67 119.67 M131.67 119.67 C131.67 141, 121 151.67, 99.67 151.67 M131.67 119.67 C131.67 141, 121 151.67, 99.67 151.67 M99.67 151.67 C84.08 151.67, 68.5 151.67, 32 151.67 M99.67 151.67 C82.71 151.67, 65.75 151.67, 32 151.67 M32 151.67 C10.67 151.67, 0 141, 0 119.67 M32 151.67 C10.67 151.67, 0 141, 0 119.67 M0 119.67 C0 98.22, 0 76.77, 0 32 M0 119.67 C0 87.61, 0 55.56, 0 32 M0 32 C0 10.67, 10.67 0, 32 0 M0 32 C0 10.67, 10.67 0, 32 0" stroke="#2f9e44" stroke-width="2" fill="none"></path></g><g transform="translate(730.259523936686 701.2103174603149) rotate(0 28.883333206176758 40)"><text x="28.883333206176758" y="0" font-family="Virgil, Segoe UI Emoji" font-size="16px" fill="#2f9e44" text-anchor="middle" style="white-space: pre;" direction="ltr" dominant-baseline="text-before-edge">2001:</text><text x="28.883333206176758" y="20" font-family="Virgil, Segoe UI Emoji" font-size="16px" fill="#2f9e44" text-anchor="middle" style="white-space: pre;" direction="ltr" dominant-baseline="text-before-edge">db8:</text><text x="28.883333206176758" y="40" font-family="Virgil, Segoe UI Emoji" font-size="16px" fill="#2f9e44" text-anchor="middle" style="white-space: pre;" direction="ltr" dominant-baseline="text-before-edge">8000:</text><text x="28.883333206176758" y="60" font-family="Virgil, Segoe UI Emoji" font-size="16px" fill="#2f9e44" text-anchor="middle" style="white-space: pre;" direction="ltr" dominant-baseline="text-before-edge">20::/59</text></g><g stroke-linecap="round" transform="translate(1208.3095238095298 677.0436507936474) rotate(0 65.83333333333326 75.83333333333326)"><path d="M32 0 M32 0 C45.98 0, 59.96 0, 99.67 0 M32 0 C50.24 0, 68.48 0, 99.67 0 M99.67 0 C121 0, 131.67 10.67, 131.67 32 M99.67 0 C121 0, 131.67 10.67, 131.67 32 M131.67 32 C131.67 53.71, 131.67 75.43, 131.67 119.67 M131.67 32 C131.67 60.29, 131.67 88.58, 131.67 119.67 M131.67 119.67 C131.67 141, 121 151.67, 99.67 151.67 M131.67 119.67 C131.67 141, 121 151.67, 99.67 151.67 M99.67 151.67 C81.59 151.67, 63.52 151.67, 32 151.67 M99.67 151.67 C74.64 151.67, 49.6 151.67, 32 151.67 M32 151.67 C10.67 151.67, 0 141, 0 119.67 M32 151.67 C10.67 151.67, 0 141, 0 119.67 M0 119.67 C0 94.06, 0 68.45, 0 32 M0 119.67 C0 99.13, 0 78.6, 0 32 M0 32 C0 10.67, 10.67 0, 32 0 M0 32 C0 10.67, 10.67 0, 32 0" stroke="#2f9e44" stroke-width="2" fill="none"></path></g><g transform="translate(1245.8428579058022 712.8769841269809) rotate(0 28.299999237060547 40)"><text x="28.299999237060547" y="0" font-family="Virgil, Segoe UI Emoji" font-size="16px" fill="#2f9e44" text-anchor="middle" style="white-space: pre;" direction="ltr" dominant-baseline="text-before-edge">2001:</text><text x="28.299999237060547" y="20" font-family="Virgil, Segoe UI Emoji" font-size="16px" fill="#2f9e44" text-anchor="middle" style="white-space: pre;" direction="ltr" dominant-baseline="text-before-edge">db8:</text><text x="28.299999237060547" y="40" font-family="Virgil, Segoe UI Emoji" font-size="16px" fill="#2f9e44" text-anchor="middle" style="white-space: pre;" direction="ltr" dominant-baseline="text-before-edge">8000:</text><text x="28.299999237060547" y="60" font-family="Virgil, Segoe UI Emoji" font-size="16px" fill="#2f9e44" text-anchor="middle" style="white-space: pre;" direction="ltr" dominant-baseline="text-before-edge">40::/59</text></g><g stroke-linecap="round" transform="translate(1799.9761904761972 678.710317460314) rotate(0 65.83333333333326 75.83333333333326)"><path d="M32 0 M32 0 C50.04 0, 68.07 0, 99.67 0 M32 0 C45.66 0, 59.33 0, 99.67 0 M99.67 0 C121 0, 131.67 10.67, 131.67 32 M99.67 0 C121 0, 131.67 10.67, 131.67 32 M131.67 32 C131.67 55.94, 131.67 79.88, 131.67 119.67 M131.67 32 C131.67 63.34, 131.67 94.68, 131.67 119.67 M131.67 119.67 C131.67 141, 121 151.67, 99.67 151.67 M131.67 119.67 C131.67 141, 121 151.67, 99.67 151.67 M99.67 151.67 C82.93 151.67, 66.19 151.67, 32 151.67 M99.67 151.67 C77.19 151.67, 54.71 151.67, 32 151.67 M32 151.67 C10.67 151.67, 0 141, 0 119.67 M32 151.67 C10.67 151.67, 0 141, 0 119.67 M0 119.67 C0 89.6, 0 59.53, 0 32 M0 119.67 C0 97.3, 0 74.92, 0 32 M0 32 C0 10.67, 10.67 0, 32 0 M0 32 C0 10.67, 10.67 0, 32 0" stroke="#2f9e44" stroke-width="2" fill="none"></path></g><g transform="translate(1837.5095245724697 714.5436507936474) rotate(0 28.299999237060547 40)"><text x="28.299999237060547" y="0" font-family="Virgil, Segoe UI Emoji" font-size="16px" fill="#2f9e44" text-anchor="middle" style="white-space: pre;" direction="ltr" dominant-baseline="text-before-edge">2001:</text><text x="28.299999237060547" y="20" font-family="Virgil, Segoe UI Emoji" font-size="16px" fill="#2f9e44" text-anchor="middle" style="white-space: pre;" direction="ltr" dominant-baseline="text-before-edge">db8:</text><text x="28.299999237060547" y="40" font-family="Virgil, Segoe UI Emoji" font-size="16px" fill="#2f9e44" text-anchor="middle" style="white-space: pre;" direction="ltr" dominant-baseline="text-before-edge">8000:</text><text x="28.299999237060547" y="60" font-family="Virgil, Segoe UI Emoji" font-size="16px" fill="#2f9e44" text-anchor="middle" style="white-space: pre;" direction="ltr" dominant-baseline="text-before-edge">60::/59</text></g><g stroke-linecap="round"><g transform="translate(748.8095238095307 962.8769841269827) rotate(0 0 -65)"><path d="M0 0 C0 -21.67, 0 -108.33, 0 -130 M0 0 C0 -21.67, 0 -108.33, 0 -130" stroke="#1971c2" stroke-width="2" fill="none"></path></g><g transform="translate(748.8095238095307 962.8769841269827) rotate(0 0 -65)"><path d="M10.26 -101.81 C8.12 -107.7, 5.97 -113.59, 0 -130 M10.26 -101.81 C7.79 -108.61, 5.31 -115.41, 0 -130" stroke="#1971c2" stroke-width="2" fill="none"></path></g><g transform="translate(748.8095238095307 962.8769841269827) rotate(0 0 -65)"><path d="M-10.26 -101.81 C-8.12 -107.7, -5.97 -113.59, 0 -130 M-10.26 -101.81 C-7.79 -108.61, -5.31 -115.41, 0 -130" stroke="#1971c2" stroke-width="2" fill="none"></path></g></g><mask></mask><g stroke-linecap="round"><g transform="translate(1268.8095238095307 959.5436507936492) rotate(0 -0.8333333333332575 -59.166666666666515)"><path d="M0 0 C-0.28 -19.72, -1.39 -98.61, -1.67 -118.33 M0 0 C-0.28 -19.72, -1.39 -98.61, -1.67 -118.33" stroke="#1971c2" stroke-width="2" fill="none"></path></g><g transform="translate(1268.8095238095307 959.5436507936492) rotate(0 -0.8333333333332575 -59.166666666666515)"><path d="M8.99 -90.29 C6.04 -98.04, 3.1 -105.79, -1.67 -118.33 M8.99 -90.29 C5.73 -98.86, 2.48 -107.43, -1.67 -118.33" stroke="#1971c2" stroke-width="2" fill="none"></path></g><g transform="translate(1268.8095238095307 959.5436507936492) rotate(0 -0.8333333333332575 -59.166666666666515)"><path d="M-11.53 -90 C-8.8 -97.83, -6.08 -105.67, -1.67 -118.33 M-11.53 -90 C-8.52 -98.66, -5.5 -107.32, -1.67 -118.33" stroke="#1971c2" stroke-width="2" fill="none"></path></g></g><mask></mask><g stroke-linecap="round"><g transform="translate(1837.1428571428642 952.8769841269827) rotate(0 -1.6666666666667425 -52.5)"><path d="M0 0 C-0.56 -17.5, -2.78 -87.5, -3.33 -105 M0 0 C-0.56 -17.5, -2.78 -87.5, -3.33 -105" stroke="#1971c2" stroke-width="2" fill="none"></path></g><g transform="translate(1837.1428571428642 952.8769841269827) rotate(0 -1.6666666666667425 -52.5)"><path d="M7.82 -77.15 C5.39 -83.21, 2.96 -89.27, -3.33 -105 M7.82 -77.15 C4.44 -85.58, 1.07 -94.01, -3.33 -105" stroke="#1971c2" stroke-width="2" fill="none"></path></g><g transform="translate(1837.1428571428642 952.8769841269827) rotate(0 -1.6666666666667425 -52.5)"><path d="M-12.69 -76.5 C-10.66 -82.7, -8.62 -88.91, -3.33 -105 M-12.69 -76.5 C-9.86 -85.12, -7.03 -93.75, -3.33 -105" stroke="#1971c2" stroke-width="2" fill="none"></path></g></g><mask></mask><g stroke-linecap="round"><g transform="translate(1477.1428571428642 947.0436507936492) rotate(0 -1.6666666666667425 -52.5)"><path d="M0 0 C-0.56 -17.5, -2.78 -87.5, -3.33 -105 M0 0 C-0.56 -17.5, -2.78 -87.5, -3.33 -105" stroke="#1971c2" stroke-width="2" fill="none"></path></g><g transform="translate(1477.1428571428642 947.0436507936492) rotate(0 -1.6666666666667425 -52.5)"><path d="M7.82 -77.15 C4 -86.68, 0.19 -96.21, -3.33 -105 M7.82 -77.15 C5.2 -83.69, 2.58 -90.23, -3.33 -105" stroke="#1971c2" stroke-width="2" fill="none"></path></g><g transform="translate(1477.1428571428642 947.0436507936492) rotate(0 -1.6666666666667425 -52.5)"><path d="M-12.69 -76.5 C-9.49 -86.25, -6.29 -96, -3.33 -105 M-12.69 -76.5 C-10.5 -83.19, -8.3 -89.88, -3.33 -105" stroke="#1971c2" stroke-width="2" fill="none"></path></g></g><mask></mask><g stroke-linecap="round"><g transform="translate(957.1428571428642 947.0436507936492) rotate(0 -1.6666666666667425 -52.5)"><path d="M0 0 C-0.56 -17.5, -2.78 -87.5, -3.33 -105 M0 0 C-0.56 -17.5, -2.78 -87.5, -3.33 -105" stroke="#1971c2" stroke-width="2" fill="none"></path></g><g transform="translate(957.1428571428642 947.0436507936492) rotate(0 -1.6666666666667425 -52.5)"><path d="M7.82 -77.15 C3.97 -86.75, 0.13 -96.34, -3.33 -105 M7.82 -77.15 C4.95 -84.31, 2.08 -91.47, -3.33 -105" stroke="#1971c2" stroke-width="2" fill="none"></path></g><g transform="translate(957.1428571428642 947.0436507936492) rotate(0 -1.6666666666667425 -52.5)"><path d="M-12.69 -76.5 C-9.47 -86.32, -6.24 -96.14, -3.33 -105 M-12.69 -76.5 C-10.29 -83.83, -7.88 -91.16, -3.33 -105" stroke="#1971c2" stroke-width="2" fill="none"></path></g></g><mask></mask><g stroke-linecap="round"><g transform="translate(415.47619047619764 948.7103174603162) rotate(0 0.8333333333332575 -65.83333333333348)"><path d="M0 0 C0.28 -21.94, 1.39 -109.72, 1.67 -131.67 M0 0 C0.28 -21.94, 1.39 -109.72, 1.67 -131.67" stroke="#1971c2" stroke-width="2" fill="none"></path></g><g transform="translate(415.47619047619764 948.7103174603162) rotate(0 0.8333333333332575 -65.83333333333348)"><path d="M11.57 -103.35 C8.04 -113.43, 4.52 -123.52, 1.67 -131.67 M11.57 -103.35 C7.76 -114.24, 3.95 -125.13, 1.67 -131.67" stroke="#1971c2" stroke-width="2" fill="none"></path></g><g transform="translate(415.47619047619764 948.7103174603162) rotate(0 0.8333333333332575 -65.83333333333348)"><path d="M-8.95 -103.61 C-5.17 -113.6, -1.39 -123.59, 1.67 -131.67 M-8.95 -103.61 C-4.87 -114.4, -0.78 -125.19, 1.67 -131.67" stroke="#1971c2" stroke-width="2" fill="none"></path></g></g><mask></mask></svg>